<?xml version="1.0" encoding="UTF-8"?>
<svg version="1.1" xmlns="http://www.w3.org/2000/svg" width="1127" height="458">
<path d="M0 0 C371.91 0 743.82 0 1127 0 C1127 151.14 1127 302.28 1127 458 C755.09 458 383.18 458 0 458 C0 306.86 0 155.72 0 0 Z " fill="#FEFEFE" transform="translate(0,0)"/>
<path d="M0 0 C240.9 0 481.8 0 730 0 C726.63295674 7.85643428 726.63295674 7.85643428 724.765625 10.69140625 C724.36037598 11.31813232 723.95512695 11.9448584 723.53759766 12.59057617 C723.11269043 13.24131104 722.6877832 13.8920459 722.25 14.5625 C719.09672151 19.4959651 716.18182655 24.41010923 713.625 29.6875 C709.42561628 38.34933788 704.57621413 46.61726607 699.76123047 54.94824219 C696.53402533 60.54015571 693.32948628 66.14504892 690.125 71.75 C689.61774887 72.6367189 689.61774887 72.6367189 689.10025024 73.54135132 C683.68007826 83.01863763 678.32709024 92.53204773 673.00390625 102.06420898 C667.40518712 112.08275977 661.70916032 122.04410788 656 132 C644.97727773 151.20174309 644.97727773 151.20174309 634.125 170.5 C633.72651855 171.21696045 633.32803711 171.9339209 632.91748047 172.67260742 C631.21253674 175.75508802 629.57584435 178.84831131 628 182 C420.76 182 213.52 182 0 182 C0 121.94 0 61.88 0 0 Z " fill="#000000" transform="translate(129,126)"/>
<path d="M0 0 C13.53 0 27.06 0 41 0 C41 60.06 41 120.12 41 182 C-6.19 182 -53.38 182 -102 182 C-98.63295674 174.14356572 -98.63295674 174.14356572 -96.765625 171.30859375 C-96.36037598 170.68186768 -95.95512695 170.0551416 -95.53759766 169.40942383 C-95.11269043 168.75868896 -94.6877832 168.1079541 -94.25 167.4375 C-91.09672151 162.5040349 -88.18182655 157.58989077 -85.625 152.3125 C-81.42561628 143.65066212 -76.57621413 135.38273393 -71.76123047 127.05175781 C-68.53402533 121.45984429 -65.32948628 115.85495108 -62.125 110.25 C-61.78683258 109.65885406 -61.44866516 109.06770813 -61.10025024 108.45864868 C-55.68007826 98.98136237 -50.32709024 89.46795227 -45.00390625 79.93579102 C-39.40518712 69.91724023 -33.70916032 59.95589212 -28 50 C-16.97727773 30.79825691 -16.97727773 30.79825691 -6.125 11.5 C-5.72651855 10.78303955 -5.32803711 10.0660791 -4.91748047 9.32739258 C-3.21253674 6.24491198 -1.57584435 3.15168869 0 0 Z " fill="#000000" transform="translate(901,127)"/>
<path d="M0 0 C1.7634375 0.86625 1.7634375 0.86625 3.5625 1.75 C4.366875 2.1625 5.17125 2.575 6 3 C6 3.66 6 4.32 6 5 C6.61875 5.309375 7.2375 5.61875 7.875 5.9375 C9.25 6.625 10.625 7.3125 12 8 C12 8.66 12 9.32 12 10 C12.66 10 13.32 10 14 10 C14 10.66 14 11.32 14 12 C14.66 12 15.32 12 16 12 C16.99 14.475 16.99 14.475 18 17 C18.66 17 19.32 17 20 17 C28.32687473 32.47541813 29.77766017 44.29322983 24.875 61.10546875 C24.441875 62.53826172 24.441875 62.53826172 24 64 C23.34 64 22.68 64 22 64 C21.87625 64.598125 21.7525 65.19625 21.625 65.8125 C21 68 21 68 19 71 C18.68921762 73.43770744 18.68921762 73.43770744 18.625 76.125 C18.2283647 81.74524731 16.62437381 86.05641213 14 91 C13.34 91 12.68 91 12 91 C11.71125 91.763125 11.4225 92.52625 11.125 93.3125 C10 96 10 96 8 99 C7.34 99 6.68 99 6 99 C6 99.66 6 100.32 6 101 C-7.04159769 115.16265193 -25.63140104 121.69088947 -44.34765625 123.28515625 C-63.9239672 123.84309324 -81.89805556 117.42256159 -96.73046875 104.6484375 C-107.25543723 94.61707571 -115.35864715 81.8626551 -116 67 C-116.05994141 65.73736328 -116.05994141 65.73736328 -116.12109375 64.44921875 C-116.56010372 46.19156887 -110.14625154 32.61206871 -97.875 19.3125 C-88.65646547 10.41349873 -76.54116082 5.03416055 -64.12109375 2.47265625 C-61.3394508 1.85280579 -58.68009618 0.96208581 -56 0 C-56 -0.66 -56 -1.32 -56 -2 C-53.75023648 -2.64665663 -51.50018033 -3.29229523 -49.25 -3.9375 C-47.99703125 -4.29714844 -46.7440625 -4.65679687 -45.453125 -5.02734375 C-44.31359375 -5.34832031 -43.1740625 -5.66929687 -42 -6 C-41.34386719 -6.20238281 -40.68773437 -6.40476563 -40.01171875 -6.61328125 C-26.46808178 -9.21681535 -12.11501553 -6.13048979 0 0 Z M-53 1 C-54.05767578 1.41572266 -54.05767578 1.41572266 -55.13671875 1.83984375 C-66.81613976 6.81908611 -75.16853365 17.61276305 -80 29 C-84.25989147 41.64860082 -81.81421662 53.96445844 -77 66 C-76.34 66 -75.68 66 -75 66 C-75 66.99 -75 67.98 -75 69 C-74.34 69 -73.68 69 -73 69 C-72.73445313 69.58265625 -72.46890625 70.1653125 -72.1953125 70.765625 C-68.3806432 77.89631402 -62.02220516 81.85495918 -55 85.375 C-54.00395752 85.87531738 -54.00395752 85.87531738 -52.98779297 86.38574219 C-45.31493406 90.0534856 -38.22962458 91.36945657 -29.75 91.3125 C-28.92097168 91.30976074 -28.09194336 91.30702148 -27.23779297 91.30419922 C-18.58772886 91.15787303 -10.97903241 89.28884848 -3 86 C-3 85.34 -3 84.68 -3 84 C-2.29746094 83.93941406 -1.59492188 83.87882812 -0.87109375 83.81640625 C2.89471426 82.74558465 5.17570459 80.58288444 7.9375 77.9375 C8.46529053 77.43943848 8.99308105 76.94137695 9.53686523 76.42822266 C16.30036543 69.93116654 20.50473318 64.10524515 23 55 C23.391875 53.845 23.78375 52.69 24.1875 51.5 C27.14701791 38.75130745 22.49521565 27.86739965 16 17 C15.34 17 14.68 17 14 17 C13.690625 16.195625 13.690625 16.195625 13.375 15.375 C11.47418297 12.09177059 9.02358811 9.30808253 6 7 C5.01 7 4.02 7 3 7 C3 6.34 3 5.68 3 5 C1.43880578 4.20576139 -0.12401964 3.41472877 -1.6875 2.625 C-2.55761719 2.18414062 -3.42773438 1.74328125 -4.32421875 1.2890625 C-18.45848784 -5.52014742 -38.81243999 -5.75261977 -53 1 Z " fill="#010101" transform="translate(262,156)"/>
<path d="M0 0 C1.7634375 0.86625 1.7634375 0.86625 3.5625 1.75 C4.366875 2.1625 5.17125 2.575 6 3 C6 3.66 6 4.32 6 5 C6.61875 5.309375 7.2375 5.61875 7.875 5.9375 C9.25 6.625 10.625 7.3125 12 8 C12 8.66 12 9.32 12 10 C12.66 10 13.32 10 14 10 C14 10.66 14 11.32 14 12 C14.66 12 15.32 12 16 12 C16.99 14.475 16.99 14.475 18 17 C18.66 17 19.32 17 20 17 C28.32687473 32.47541813 29.77766017 44.29322983 24.875 61.10546875 C24.441875 62.53826172 24.441875 62.53826172 24 64 C23.34 64 22.68 64 22 64 C21.87625 64.598125 21.7525 65.19625 21.625 65.8125 C21 68 21 68 19 71 C18.68921762 73.43770744 18.68921762 73.43770744 18.625 76.125 C18.2283647 81.74524731 16.62437381 86.05641213 14 91 C13.34 91 12.68 91 12 91 C11.71125 91.763125 11.4225 92.52625 11.125 93.3125 C10 96 10 96 8 99 C7.34 99 6.68 99 6 99 C6 99.66 6 100.32 6 101 C-7.04159769 115.16265193 -25.63140104 121.69088947 -44.34765625 123.28515625 C-63.9239672 123.84309324 -81.89805556 117.42256159 -96.73046875 104.6484375 C-107.25543723 94.61707571 -115.35864715 81.8626551 -116 67 C-116.05994141 65.73736328 -116.05994141 65.73736328 -116.12109375 64.44921875 C-116.56010372 46.19156887 -110.14625154 32.61206871 -97.875 19.3125 C-88.65646547 10.41349873 -76.54116082 5.03416055 -64.12109375 2.47265625 C-61.3394508 1.85280579 -58.68009618 0.96208581 -56 0 C-56 -0.66 -56 -1.32 -56 -2 C-53.75023648 -2.64665663 -51.50018033 -3.29229523 -49.25 -3.9375 C-47.99703125 -4.29714844 -46.7440625 -4.65679687 -45.453125 -5.02734375 C-44.31359375 -5.34832031 -43.1740625 -5.66929687 -42 -6 C-41.34386719 -6.20238281 -40.68773437 -6.40476563 -40.01171875 -6.61328125 C-26.46808178 -9.21681535 -12.11501553 -6.13048979 0 0 Z M-53 1 C-54.05767578 1.41572266 -54.05767578 1.41572266 -55.13671875 1.83984375 C-66.81613976 6.81908611 -75.16853365 17.61276305 -80 29 C-84.25989147 41.64860082 -81.81421662 53.96445844 -77 66 C-76.34 66 -75.68 66 -75 66 C-75 66.99 -75 67.98 -75 69 C-74.34 69 -73.68 69 -73 69 C-72.73445313 69.58265625 -72.46890625 70.1653125 -72.1953125 70.765625 C-68.3806432 77.89631402 -62.02220516 81.85495918 -55 85.375 C-54.00395752 85.87531738 -54.00395752 85.87531738 -52.98779297 86.38574219 C-45.31493406 90.0534856 -38.22962458 91.36945657 -29.75 91.3125 C-28.92097168 91.30976074 -28.09194336 91.30702148 -27.23779297 91.30419922 C-18.58772886 91.15787303 -10.97903241 89.28884848 -3 86 C-3 85.34 -3 84.68 -3 84 C-2.29746094 83.93941406 -1.59492188 83.87882812 -0.87109375 83.81640625 C2.89471426 82.74558465 5.17570459 80.58288444 7.9375 77.9375 C8.46529053 77.43943848 8.99308105 76.94137695 9.53686523 76.42822266 C16.30036543 69.93116654 20.50473318 64.10524515 23 55 C23.391875 53.845 23.78375 52.69 24.1875 51.5 C27.14701791 38.75130745 22.49521565 27.86739965 16 17 C15.34 17 14.68 17 14 17 C13.690625 16.195625 13.690625 16.195625 13.375 15.375 C11.47418297 12.09177059 9.02358811 9.30808253 6 7 C5.01 7 4.02 7 3 7 C3 6.34 3 5.68 3 5 C1.43880578 4.20576139 -0.12401964 3.41472877 -1.6875 2.625 C-2.55761719 2.18414062 -3.42773438 1.74328125 -4.32421875 1.2890625 C-18.45848784 -5.52014742 -38.81243999 -5.75261977 -53 1 Z M-96 22 C-96 22.66 -96 23.32 -96 24 C-96.66 24 -97.32 24 -98 24 C-99.55936081 25.94769584 -100.97806171 27.87743473 -102.375 29.9375 C-102.77984619 30.52926025 -103.18469238 31.12102051 -103.60180664 31.73071289 C-106.64597548 36.27263989 -109.14600223 40.84146734 -111 46 C-111.35320312 46.89847656 -111.70640625 47.79695313 -112.0703125 48.72265625 C-115.4076005 60.48729758 -113.28885555 73.19807307 -108 84 C-105.85167999 87.81244536 -103.54522013 91.44151688 -101 95 C-100.21496094 96.14082031 -100.21496094 96.14082031 -99.4140625 97.3046875 C-98.94742188 97.86414063 -98.48078125 98.42359375 -98 99 C-97.34 99 -96.68 99 -96 99 C-96 99.66 -96 100.32 -96 101 C-95.34 101 -94.68 101 -94 101 C-94 101.66 -94 102.32 -94 103 C-92.51363242 104.3606009 -92.51363242 104.3606009 -90.625 105.625 C-89.68527344 106.29402344 -89.68527344 106.29402344 -88.7265625 106.9765625 C-87.04777357 108.16996969 -87.04777357 108.16996969 -85 108 C-85 108.66 -85 109.32 -85 110 C-70.50528981 119.18128543 -50.83281227 122.26006439 -34.25 118.6875 C-32.16083314 118.14706881 -30.07674021 117.58637371 -28 117 C-27.20980469 116.7834375 -26.41960937 116.566875 -25.60546875 116.34375 C-19.04475286 114.35780357 -13.05731239 111.1670212 -7 108 C-7 107.34 -7 106.68 -7 106 C-5 105 -3 104 -1 103 C-1 102.34 -1 101.68 -1 101 C-0.34 101 0.32 101 1 101 C1 100.34 1 99.68 1 99 C1.9590625 98.5978125 1.9590625 98.5978125 2.9375 98.1875 C5.33131686 97.11332248 5.33131686 97.11332248 6 94 C6.66 94 7.32 94 8 94 C8 93.01 8 92.02 8 91 C8.66 91 9.32 91 10 91 C10.83819158 89.37750059 11.6704116 87.75191503 12.5 86.125 C12.9640625 85.22007812 13.428125 84.31515625 13.90625 83.3828125 C15.13905589 81.13403141 15.13905589 81.13403141 15 79 C12.14494449 80.32690906 9.82165128 81.83956205 7.375 83.8125 C-6.25968613 94.12656146 -21.33145664 96.27877417 -38 95 C-49.19716014 93.40394071 -58.36156146 88.73235384 -66.9921875 81.55078125 C-68.92257775 79.93494175 -68.92257775 79.93494175 -71.1328125 79.04296875 C-73.54923993 77.69320699 -73.90979823 76.52328958 -75 74 C-76.76401397 71.01282541 -78.55108071 68.04037051 -80.34375 65.0703125 C-86.5164503 53.62752374 -86.6464906 38.32378768 -83 26 C-81.53902106 22.72833971 -79.95310415 19.58118922 -78.2421875 16.43359375 C-76.84845587 14.1584886 -76.84845587 14.1584886 -77 12 C-76.34 12 -75.68 12 -75 12 C-75 11.34 -75 10.68 -75 10 C-82.12919522 10 -90.86037264 17.23364167 -96 22 Z " fill="#BFBFBF" transform="translate(262,156)"/>
</svg>
